<svg width="127" height="127" viewBox="0 0 127 127" fill="none" xmlns="http://www.w3.org/2000/svg">
<circle cx="63.5" cy="63.5" r="62" fill="#F54D4D" stroke="black" stroke-width="3"/>
<path d="M48.0735 28.1662C37.0806 28.1662 28.166 37.0808 28.166 48.0738V79.9258C28.166 90.9187 37.0806 99.8333 48.0735 99.8333H79.9256C90.9185 99.8333 99.8331 90.9187 99.8331 79.9258V48.0738C99.8331 37.0808 90.9185 28.1662 79.9256 28.1662H48.0735ZM87.8886 36.1292C90.0864 36.1292 91.8701 37.913 91.8701 40.1107C91.8701 42.3085 90.0864 44.0923 87.8886 44.0923C85.6908 44.0923 83.9071 42.3085 83.9071 40.1107C83.9071 37.913 85.6908 36.1292 87.8886 36.1292ZM63.9996 44.0923C74.9925 44.0923 83.9071 53.0068 83.9071 63.9998C83.9071 74.9927 74.9925 83.9073 63.9996 83.9073C53.0066 83.9073 44.092 74.9927 44.092 63.9998C44.092 53.0068 53.0066 44.0923 63.9996 44.0923ZM63.9996 52.0553C60.8317 52.0553 57.7935 53.3137 55.5535 55.5537C53.3135 57.7938 52.0551 60.8319 52.0551 63.9998C52.0551 67.1677 53.3135 70.2058 55.5535 72.4458C57.7935 74.6859 60.8317 75.9443 63.9996 75.9443C67.1675 75.9443 70.2056 74.6859 72.4456 72.4458C74.6856 70.2058 75.9441 67.1677 75.9441 63.9998C75.9441 60.8319 74.6856 57.7938 72.4456 55.5537C70.2056 53.3137 67.1675 52.0553 63.9996 52.0553Z" fill="black"/>
</svg>
